<?xml version="1.0" encoding="UTF-8" standalone="no"?>
<!-- Created with Inkscape (http://www.inkscape.org/) -->

<svg
   viewBox="0 0 266.66074 451.754"
   version="1.1"
   id="svg1"
   xmlns="http://www.w3.org/2000/svg"
   xmlns:svg="http://www.w3.org/2000/svg">
  <defs
     id="defs1" />
  <g
     id="layer1"
     transform="translate(-112.75036,-25.49139)">
    <path
       id="path1"
       d="m 357.68934,82.847008 a 65.689339,57.355618 0 0 1 -65.6124,57.355582 65.689339,57.355618 0 0 1 -65.7661,-57.221229 65.689339,57.355618 0 0 1 65.45835,-57.489617 65.689339,57.355618 0 0 1 65.91943,57.086559 L 292,82.847008 Z"
       class="person-exec person-exec-head" />
    <path
       d="m 112.75036,471.59064 4.90219,-240.20729 C 174.05599,178.1941 274.57451,124.99587 256,162.7527"
       id="path3"
       class="person-exec person-exec-left" />
    <path
       d="M 316.11088,144.36784 296.73787,382.92481 C 236.29063,441.37388 131.05828,504.31788 152.17758,465.00998"
       id="path3-1"
       class="person-exec person-exec-middle" />
    <path
       d="m 376.81943,162.35341 c 13.19268,237.78823 -28.27398,284.69017 -28.27398,284.69017 l -26.85611,-306.84096 1.74095,1.8426 c 0,0 52.53108,4.84229 53.38914,20.30819 z"
       id="path4"
       class="person-exec person-exec-right" />
    <path
       d="m 232.76573,460.80583 c 96.92361,-1.96088 96.92361,0 96.92361,0 v -51.96321 c -21.84987,23.85732 -54.15774,41.17839 -96.92361,51.96321 z"
       id="path5"
       class="person-exec person-exec-down" />
  </g>
</svg>
